<?xml version="1.0" standalone="no"?>
<!DOCTYPE svg PUBLIC "-//W3C//DTD SVG 20010904//EN"
 "http://www.w3.org/TR/2001/REC-SVG-20010904/DTD/svg10.dtd">
<svg version="1.0" xmlns="http://www.w3.org/2000/svg"
 width="64.000000pt" height="64.000000pt" viewBox="0 0 64.000000 64.000000"
 preserveAspectRatio="xMidYMid meet">

<g transform="translate(0.000000,64.000000) scale(0.100000,-0.100000)"
fill="#000000" stroke="none">
<path d="M314 410 c-55 -52 -86 -72 -152 -98 -92 -37 -112 -59 -119 -125 -5
-55 21 -106 67 -130 108 -56 315 54 398 211 38 71 40 89 19 129 l-17 32 -36
-15 -36 -15 6 34 c6 34 5 35 -28 39 -30 3 -41 -3 -102 -62z m70 -23 c-10 -26
-95 -84 -178 -122 -55 -25 -82 -44 -94 -65 -18 -32 -35 -41 -25 -12 12 34 39
55 133 102 52 27 110 64 129 84 36 37 46 41 35 13z"/>
</g>
</svg>
