<?xml version="1.0" encoding="UTF-8" standalone="no"?>
<!-- Created with Inkscape (http://www.inkscape.org/) -->

<svg
   width="64pt"
   height="64pt"
   viewBox="0 0 22.577778 22.577778"
   version="1.1"
   id="svg831"
   inkscape:version="1.1.1 (3bf5ae0d25, 2021-09-20)"
   sodipodi:docname="Ex.svg"
   inkscape:export-filename="C:\Users\User\Desktop\CARLOS PROJECT\4. APRIL 1\Done\5 - Garlic.png"
   inkscape:export-xdpi="576"
   inkscape:export-ydpi="576"
   xmlns:inkscape="http://www.inkscape.org/namespaces/inkscape"
   xmlns:sodipodi="http://sodipodi.sourceforge.net/DTD/sodipodi-0.dtd"
   xmlns="http://www.w3.org/2000/svg"
   xmlns:svg="http://www.w3.org/2000/svg"
   xmlns:rdf="http://www.w3.org/1999/02/22-rdf-syntax-ns#"
   xmlns:cc="http://creativecommons.org/ns#"
   xmlns:dc="http://purl.org/dc/elements/1.1/">
  <defs
     id="defs825">
    <pattern
       id="EMFhbasepattern"
       patternUnits="userSpaceOnUse"
       width="6"
       height="6"
       x="0"
       y="0" />
    <pattern
       id="EMFhbasepattern-9"
       patternUnits="userSpaceOnUse"
       width="6"
       height="6"
       x="0"
       y="0" />
    <pattern
       id="EMFhbasepattern-0"
       patternUnits="userSpaceOnUse"
       width="6"
       height="6"
       x="0"
       y="0" />
    <pattern
       id="EMFhbasepattern-7"
       patternUnits="userSpaceOnUse"
       width="6"
       height="6"
       x="0"
       y="0" />
    <pattern
       id="EMFhbasepattern-2"
       patternUnits="userSpaceOnUse"
       width="6"
       height="6"
       x="0"
       y="0" />
    <pattern
       id="EMFhbasepattern-98"
       patternUnits="userSpaceOnUse"
       width="6"
       height="6"
       x="0"
       y="0" />
    <pattern
       id="EMFhbasepattern-6"
       patternUnits="userSpaceOnUse"
       width="6"
       height="6"
       x="0"
       y="0" />
    <pattern
       id="EMFhbasepattern-01"
       patternUnits="userSpaceOnUse"
       width="6"
       height="6"
       x="0"
       y="0" />
    <pattern
       id="EMFhbasepattern-07"
       patternUnits="userSpaceOnUse"
       width="6"
       height="6"
       x="0"
       y="0" />
    <pattern
       id="EMFhbasepattern-8"
       patternUnits="userSpaceOnUse"
       width="6"
       height="6"
       x="0"
       y="0" />
    <pattern
       id="EMFhbasepattern-4"
       patternUnits="userSpaceOnUse"
       width="6"
       height="6"
       x="0"
       y="0" />
    <pattern
       id="EMFhbasepattern-40"
       patternUnits="userSpaceOnUse"
       width="6"
       height="6"
       x="0"
       y="0" />
    <pattern
       id="EMFhbasepattern-08"
       patternUnits="userSpaceOnUse"
       width="6"
       height="6"
       x="0"
       y="0" />
    <pattern
       id="EMFhbasepattern-04"
       patternUnits="userSpaceOnUse"
       width="6"
       height="6"
       x="0"
       y="0" />
    <pattern
       id="EMFhbasepattern-014"
       patternUnits="userSpaceOnUse"
       width="6"
       height="6"
       x="0"
       y="0" />
    <pattern
       id="EMFhbasepattern-27"
       patternUnits="userSpaceOnUse"
       width="6"
       height="6"
       x="0"
       y="0" />
    <pattern
       id="EMFhbasepattern-09"
       patternUnits="userSpaceOnUse"
       width="6"
       height="6"
       x="0"
       y="0" />
    <pattern
       id="EMFhbasepattern-5"
       patternUnits="userSpaceOnUse"
       width="6"
       height="6"
       x="0"
       y="0" />
    <pattern
       id="EMFhbasepattern-018"
       patternUnits="userSpaceOnUse"
       width="6"
       height="6"
       x="0"
       y="0" />
  </defs>
  <sodipodi:namedview
     id="base"
     pagecolor="#ffffff"
     bordercolor="#666666"
     borderopacity="1.0"
     inkscape:pageopacity="0.0"
     inkscape:pageshadow="2"
     inkscape:zoom="6.4882571"
     inkscape:cx="28.204801"
     inkscape:cy="42.615451"
     inkscape:document-units="pt"
     inkscape:current-layer="layer1"
     showgrid="false"
     units="pt"
     inkscape:window-width="1920"
     inkscape:window-height="1001"
     inkscape:window-x="-9"
     inkscape:window-y="-9"
     inkscape:window-maximized="1"
     inkscape:pagecheckerboard="true"
     inkscape:showpageshadow="false"
     inkscape:object-paths="true"
     inkscape:snap-intersection-paths="true"
     inkscape:snap-smooth-nodes="true"
     inkscape:snap-midpoints="true"
     showguides="true"
     inkscape:snap-bbox="true"
     inkscape:bbox-nodes="true"
     inkscape:snap-nodes="false"
     inkscape:snap-global="true"
     inkscape:lockguides="true">
    <inkscape:grid
       type="xygrid"
       id="grid1378" />
    <sodipodi:guide
       position="0.97013831,21.607643"
       orientation="78.000048,0"
       id="guide1380"
       inkscape:locked="true" />
    <sodipodi:guide
       position="0.97013831,0.97013129"
       orientation="0,78.000005"
       id="guide1382"
       inkscape:locked="true" />
    <sodipodi:guide
       position="21.607639,0.97013129"
       orientation="-78.000048,0"
       id="guide1384"
       inkscape:locked="true" />
    <sodipodi:guide
       position="21.607639,21.607643"
       orientation="0,-78.000005"
       id="guide1386"
       inkscape:locked="true" />
  </sodipodi:namedview>
  <metadata
     id="metadata828">
    <rdf:RDF>
      <cc:Work
         rdf:about="">
        <dc:format>image/svg+xml</dc:format>
        <dc:type
           rdf:resource="http://purl.org/dc/dcmitype/StillImage" />
      </cc:Work>
    </rdf:RDF>
  </metadata>
  <g
     inkscape:label="Icon"
     inkscape:groupmode="layer"
     id="layer1"
     transform="translate(0,-274.42223)">
    <path
       id="path3267"
       style="color:#000000;display:inline;fill:#000000;stroke-width:1;stroke-linecap:round;stroke-linejoin:round;-inkscape-stroke:none"
       d="m 7.7329731,276.07686 c -0.1322313,0.35703 -0.1447179,0.75673 -0.1447179,1.14282 0.012194,0.41023 0.014154,0.80027 -0.034393,1.19667 -0.5047563,0.0973 -0.8915721,0.27914 -1.1330752,0.5594 -0.2545014,0.29535 -0.3551809,0.64691 -0.4367451,0.99355 -0.163132,0.69327 -0.2431347,1.41275 -0.9565597,2.17334 -0.1971059,0.21167 -0.048454,0.55665 0.2407622,0.55875 0.2389779,0 0.486844,-0.0239 0.7333178,-0.0674 0.3647533,2.6924 -0.4808732,4.04242 -1.4789659,5.33829 -1.0199192,1.32423 -2.2518696,2.59513 -2.2518696,4.88403 0,1.24473 0.5836093,2.10629 1.4666354,2.57505 0.8830262,0.46876 2.0284285,0.59834 3.2694299,0.59834 0.00735,2.4e-4 0.014719,2.4e-4 0.022062,0 1.2781518,-0.0854 2.3113019,-0.4516 3.115628,-1.02469 1.247125,0.29619 2.385371,0.11252 3.36483,-0.4004 1.02057,-0.53449 1.873882,-1.41183 2.58738,-2.45241 1.308366,-1.90814 2.155468,-4.37698 2.632805,-6.44281 0.132574,0.10122 0.269497,0.19341 0.408842,0.27385 0.25185,0.1464 0.556783,-0.0791 0.490612,-0.36276 -0.222701,-0.95194 0.04861,-1.57293 0.242706,-2.21747 0.09705,-0.32227 0.179835,-0.65929 0.110323,-1.02535 -0.06515,-0.3431 -0.299963,-0.67254 -0.659988,-0.98836 0.119289,-0.34228 0.370129,-0.69723 0.534738,-0.98122 0.182352,-0.31585 0.360699,-0.6494 0.421819,-1.00783 0.08983,-0.54528 -0.02552,-0.73387 -0.448427,-1.02015 -0.434221,-0.24237 -0.731943,-0.15989 -1.109063,0.12005 -0.279853,0.23215 -0.479581,0.55507 -0.661931,0.8709 -0.18318,0.33506 -0.360025,0.65459 -0.581463,0.95396 -0.454003,-0.15424 -0.856967,-0.19375 -1.18694,-0.0785 -0.351784,0.12282 -0.603335,0.36289 -0.833903,0.60807 -0.461143,0.49036 -0.862516,1.03687 -1.798252,1.31998 -0.277614,0.0851 -0.32024,0.46027 -0.06879,0.60547 0.1907,0.11013 0.398803,0.205 0.61456,0.28425 -0.549951,1.33428 -1.214945,2.12859 -1.943618,2.67953 -0.190347,-1.08967 -0.454538,-2.13986 -0.74305,-3.08059 0.184281,0.025 0.368176,0.0383 0.547067,0.0383 0.290144,-4.3e-4 0.440434,-0.3464 0.24271,-0.55875 -0.713429,-0.76059 -0.793428,-1.48007 -0.95656,-2.17334 -0.08156,-0.34664 -0.184839,-0.6982 -0.439341,-0.99355 -0.241483,-0.28024 -0.625793,-0.46209 -1.13048,-0.5594 -0.078859,-0.38112 -0.034958,-0.84433 -0.034393,-1.19667 0,-0.38609 -0.012432,-0.78579 -0.1447178,-1.14282 -0.1788247,-0.4655 -0.5235792,-0.68463 -0.9344907,-0.68463 -0.4986526,0 -0.7807385,0.2841 -0.9344939,0.68463 z m 1.2459919,0.23038 c 0.075437,0.20368 0.1031843,0.55096 0.1031843,0.91244 0,0.3615 -0.021032,0.73429 0.00266,1.0526 0.00943,0.42758 0.223335,0.6188 0.5431761,0.7729 0.4358546,0.0754 0.6441616,0.20552 0.7813396,0.36472 0.532767,0.72725 0.399691,2.09496 1.103222,2.49911 -0.649857,-0.0761 -1.133182,-0.22577 -1.6308211,-0.61066 -0.1650624,-0.16998 -0.1073586,-0.39517 -0.103168,-0.59055 -3.323e-4,-0.18274 -0.1482199,-0.33089 -0.3309653,-0.33161 -0.183759,-7.3e-4 -0.333205,0.14786 -0.3335637,0.33161 -0.00628,0.50981 -0.060682,1.07916 -0.2232519,1.5523 -0.064612,0.18367 -0.1398402,0.3198 -0.2232319,0.31981 -0.083392,2e-5 -0.1586199,-0.13614 -0.2232286,-0.31981 -0.1679199,-0.57367 -0.2127789,-1.00906 -0.2232552,-1.5523 -3.323e-4,-0.18375 -0.1498048,-0.33234 -0.3335637,-0.33161 -0.1827455,7.3e-4 -0.3306098,0.14887 -0.3309654,0.33161 0.066649,0.25881 -0.038247,0.42078 -0.1031717,0.59055 -0.4535444,0.42738 -1.0755702,0.51915 -1.6308207,0.61066 0.6999086,-0.64156 0.6969714,-1.7417 1.1032212,-2.49911 0.1371788,-0.1592 0.3454853,-0.28937 0.7813433,-0.36472 0.4198096,-0.12043 0.4917348,-0.41577 0.5431728,-0.7729 0.02359,-0.31831 0.00266,-0.6911 0.00266,-1.0526 0,-0.36148 0.027744,-0.70876 0.1031843,-0.91244 0.1521041,-0.33952 0.4803515,-0.35483 0.6228464,0 z m 10.644803,2.98001 c -0.03363,0.19723 -0.173249,0.49265 -0.343296,0.78717 -0.170046,0.29454 -0.363408,0.5882 -0.495155,0.86117 -0.198826,0.36355 -0.142706,0.68633 0.08631,0.91308 0.316612,0.26432 0.422206,0.46479 0.458159,0.65414 0.03656,0.1925 -0.0049,0.41466 -0.09344,0.70866 -0.180075,0.56989 -0.374067,0.96552 -0.34601,1.6779 -0.628286,-0.5857 -0.989245,-1.02472 -0.652049,-1.61821 0.09184,-0.15928 0.03687,-0.36285 -0.122655,-0.45426 -0.159277,-0.0918 -0.362861,-0.0369 -0.454267,0.12269 -0.233855,0.41679 -0.572393,0.82983 -0.909828,1.15514 -0.138229,0.11854 -0.262159,0.19354 -0.315083,0.16321 -0.05293,-0.0303 -0.04954,-0.17502 -0.01599,-0.35401 0.130632,-0.54627 0.300972,-0.91858 0.544471,-1.36669 0.09184,-0.15846 0.03814,-0.36134 -0.120055,-0.45362 -0.07624,-0.0446 -0.167068,-0.0569 -0.252444,-0.0344 -0.08581,0.0222 -0.159168,0.0779 -0.203771,0.15445 -0.282404,0.64129 -1.401126,0.44012 -1.943618,0.24984 0.676691,-0.0848 1.390076,-1.15743 2.063675,-1.57954 0.181985,-0.0636 0.408307,-0.0726 0.795618,0.0694 0.414815,0.10486 0.612476,-0.1075 0.833256,-0.38093 0.170529,-0.25057 0.327702,-0.56339 0.49775,-0.85792 0.170046,-0.29452 0.356083,-0.56404 0.510077,-0.69178 0.224719,-0.19073 0.52607,-0.0212 0.478337,0.27452 z m -10.956301,4.07932 c 0.6894988,0 0.8511056,-0.85378 0.9877095,-1.39006 0.3435981,0.24964 0.7436575,0.39255 1.1110095,0.52176 0.747715,2.31671 1.373113,5.45326 1.033134,8.02496 -0.174044,1.31653 -0.597828,2.4744 -1.353719,3.32329 -0.171698,0.19283 -0.361145,0.37107 -0.5697808,0.53215 -0.00622,0.004 -0.012257,0.009 -0.018175,0.0137 -0.7054407,0.53849 -1.632296,0.88613 -2.8631865,0.9702 -1.1854866,-0.001 -2.237446,-0.14128 -2.9456014,-0.51722 -0.7111158,-0.37751 -1.1136045,-0.93429 -1.1136045,-1.98905 0,-2.0552 1.0602561,-3.11393 2.1116972,-4.47908 1.037835,-1.34748 2.0138421,-2.99378 1.6029173,-5.90483 0.3818516,-0.11214 0.7163755,-0.30171 1.029887,-0.4958 0.1399565,0.68166 0.4458857,1.39006 0.9877128,1.39006 z m 7.213776,-0.0377 c -0.129596,0.35419 -0.151131,0.73521 -0.142761,1.07985 0.02917,0.19196 0.109268,0.39852 0.311498,0.51527 0.202226,0.11679 0.425296,0.0828 0.606124,0.0126 0.362806,-0.15778 0.610705,-0.40863 0.862459,-0.66388 0.160843,0.35381 0.414174,0.65206 0.64571,0.92281 -0.44662,2.07648 -1.308655,4.67418 -2.616584,6.58169 -0.671898,0.97992 -1.457731,1.77304 -2.347266,2.2389 -0.72326,0.37878 -1.514007,0.55067 -2.40827,0.43415 0.05164,-0.0529 0.102208,-0.10662 0.151207,-0.16159 0.873264,-0.98071 1.327706,-2.27522 1.513362,-3.67957 0.174571,-1.3205 0.114505,-2.74531 -0.08047,-4.13384 0.936391,-0.63156 1.811499,-1.59358 2.472516,-3.2266 0.351765,0.0712 0.722316,0.0865 1.032476,0.0805 z m -5.9431233,0.42504 c -0.1748808,0.0566 -0.270553,0.24449 -0.2135065,0.41922 0.7643708,2.32221 1.2234778,4.9064 0.4510228,7.24298 -0.05727,0.174 0.03707,0.36151 0.210911,0.41923 0.174187,0.0576 0.362162,-0.0367 0.419873,-0.21091 0.842324,-2.54794 0.336062,-5.27431 -0.449075,-7.65961 -0.09137,-0.22897 -0.241497,-0.2544 -0.4192253,-0.21091 z m 6.5881813,2.30769 c -0.470177,2.2544 -1.314315,4.57574 -3.041646,6.11509 -0.137976,0.12219 -0.1502,0.33324 -0.02725,0.47049 0.122197,0.13841 0.3338,0.15066 0.471141,0.0273 1.89351,-1.68745 2.763627,-4.15843 3.247364,-6.47786 0.03716,-0.17954 -0.07814,-0.35524 -0.257634,-0.39263 -0.202153,-0.0345 -0.334151,0.0367 -0.39198,0.25764 z m -6.9756083,6.3896 c -0.1332714,0.14968 -0.2817804,0.28493 -0.4464805,0.40689 -0.146831,0.10925 -0.1775888,0.3168 -0.068789,0.46401 0.1086735,0.14706 0.3157511,0.17867 0.4633529,0.0707 0.2020601,-0.14962 0.3844467,-0.31771 0.5470699,-0.50035 0.121639,-0.13698 0.109451,-0.34658 -0.02725,-0.46854 -0.1710893,-0.13804 -0.3468407,-0.0934 -0.4679079,0.0273 z"
       sodipodi:nodetypes="cccsscccssscccsscccssccccccccccccccccssccccccsccccccscccccsccccccscccsccsccccccccccccccccscccccsscccsssccccccccccscssccccscccccscccccccccccccc" />
  </g>
</svg>
