<?xml version="1.0" standalone="no"?>
<!DOCTYPE svg PUBLIC "-//W3C//DTD SVG 20010904//EN"
 "http://www.w3.org/TR/2001/REC-SVG-20010904/DTD/svg10.dtd">
<svg version="1.0" xmlns="http://www.w3.org/2000/svg"
 width="500.000000pt" height="500.000000pt" viewBox="0 0 500.000000 500.000000"
 preserveAspectRatio="xMidYMid meet">

<g transform="translate(0.000000,500.000000) scale(0.100000,-0.100000)"
fill="#000000" stroke="none">
<path d="M718 4461 c-14 -15 -30 -44 -37 -62 -25 -66 -34 -77 -79 -100 -67
-35 -92 -77 -92 -156 0 -35 5 -73 10 -83 10 -19 11 -19 30 0 24 24 48 25 77 5
18 -13 22 -13 33 0 16 19 64 19 84 0 36 -36 26 -96 -20 -117 -21 -10 -31 -9
-53 3 -22 13 -29 13 -39 2 -18 -19 -69 -16 -81 5 -7 11 -10 13 -11 3 0 -7 10
-31 22 -52 60 -108 161 -98 220 21 25 49 27 66 27 160 1 113 -13 158 -65 228
-23 29 -25 37 -14 62 6 15 22 38 36 51 13 12 24 31 24 41 0 29 -44 23 -72 -11z"/>
<path d="M676 4054 c-20 -20 -20 -58 0 -78 21 -21 30 -20 48 6 20 28 22 58 4
40 -7 -7 -15 -12 -19 -12 -13 0 -19 33 -8 46 16 20 -5 18 -25 -2z"/>
<path d="M562 4048 c-32 -32 1 -104 36 -81 23 14 28 43 7 43 -21 0 -32 30 -14
41 12 7 11 9 -1 9 -9 0 -21 -5 -28 -12z"/>
</g>
</svg>
